<svg width="63" height="59" viewBox="0 0 63 59" fill="none" xmlns="http://www.w3.org/2000/svg">
<ellipse cx="31.5" cy="29.0132" rx="31.5" ry="29.0132" fill="#F4B41A"/>
<path d="M16.6543 15.9761V36.1974L25.3206 44.8637L33.9868 36.1974L39.7643 41.9749H51.3194V21.7536H39.7643L33.9868 15.9761L25.3206 24.6424L16.6543 15.9761Z" stroke="#4D4D4D" stroke-width="2"/>
<path d="M16.6543 36.1974V15.9761L25.3206 24.6424V44.8637L16.6543 36.1974Z" fill="#F2F2F2"/>
<path d="M33.9869 36.1974V15.9761L25.3206 24.6424V44.8637L33.9869 36.1974Z" fill="#E6E6E6"/>
<path d="M33.9868 36.1974L39.7644 41.9749V21.7536L33.9868 15.9761V36.1974Z" fill="white"/>
<path d="M39.7643 21.7536H51.3194V41.9749H39.8227L39.7643 21.7536Z" fill="#CCCCCC"/>
<path opacity="0.3" d="M16.6543 36.1974L25.3206 44.8636C25.5369 43.6738 26.7394 43.2072 26.9557 42.0173C27.1244 41.0883 26.3075 39.4365 26.4762 38.5081C28.199 38.1961 28.1961 37.1931 28.2094 36.1971C27.6941 35.1196 27.5624 33.8976 27.8772 32.7468C27.9876 31.9708 28.0985 31.1955 28.2094 30.4196C29.7003 33.6687 34.0378 41.4136 32.8311 30.3597C32.8522 29.008 32.4789 26.6135 34.4363 26.5264C35.5471 26.4548 37.7761 27.9796 38.0213 26.1649C37.5323 24.4006 39.4369 24.0744 40.3528 23.0262C40.7316 22.3234 38.6979 20.6609 37.6539 19.6371C36.3753 18.3274 35.3319 17.2256 33.9869 15.9759C31.0323 19.001 28.4064 21.4998 25.3865 24.5902C24.1825 26.9422 21.6455 21.9089 20.3674 23.3561C20.1593 20.0913 18.3929 21.4923 18.1818 21.8719C17.7138 22.7142 22.8998 28.4219 22.4319 29.2642C21.4689 29.2642 19.9511 28.6311 19.5431 29.2642C19.1211 29.9192 18.5062 32.1711 20.9584 33.0546C21.1796 34.689 19.1228 33.6258 18.9439 34.925C18.7552 37.1748 17.4052 35.7552 16.6544 36.1972L16.6543 36.1974Z" fill="#5AA02C"/>
<path d="M16.6304 23.202C18.8218 22.5007 22.591 35.2441 25.5716 32.9319C26.2756 31.8494 27.0796 30.9099 28.9903 31.5513C28.9903 31.5513 31.5197 31.9917 32.8692 31.2226C34.1068 30.5172 34.5128 28.7243 34.5128 28.7243C35.4677 26.417 38.0495 28.7785 39.1806 31.354C39.587 32.8393 36.8894 33.0683 37.9972 35.1015C39.2051 37.7748 41.6063 37.846 44.2427 38.3887C47.7891 39.1186 48.0778 40.7801 48.0559 42.0046" stroke="#FF7F2A" stroke-width="2"/>
<g opacity="0.3" filter="url(#filter0_f_7_119)">
<path d="M25.3206 45.4414L39.7644 42.5526V31.5754L33.9869 15.9761L25.3206 24.0646V45.4414Z" fill="black"/>
</g>
<path d="M39.7724 36.3834L39.7396 37.8626C41.0539 38.4584 45.2365 39.0652 46.7413 40.0322C47.4089 40.7553 47.4545 41.4006 47.4316 42.0374L48.7137 42.0045C48.4849 40.8594 48.4074 39.8484 47.07 38.8494C44.8965 37.2254 41.7252 38.025 39.7724 36.3836L39.7724 36.3834Z" fill="#FF6600"/>
<path d="M16.5975 22.5116L16.6304 23.695C18.2804 24.4836 21.9367 32.7287 23.5992 33.3926C24.18 33.7476 24.7607 33.975 25.3414 33.7213L25.3085 32.3406C25.1524 32.7024 24.2324 33.164 22.2843 30.1053L20.5426 27.1143C18.99 24.3717 18.1718 22.7361 16.5979 22.5119L16.5975 22.5116Z" fill="#FFB380"/>
<path opacity="0.5" d="M41.2185 22.0488C40.98 23.7658 40.352 24.2789 40.3609 24.9387C39.7776 26.3917 39.1397 30.4245 41.5989 29.1623C41.3413 31.3532 43.2208 28.5741 43.5597 29.8819C38.7719 36.4394 42.5326 35.7369 44.0334 35.8865C52.9279 43.726 48.364 35.2324 50.7359 27.724C51.3655 26.6308 51.2735 25.5641 51.1979 24.2736C51.2651 23.617 51.3761 22.4409 51.3344 21.7754C50.1185 21.8223 45.3431 21.9158 43.3949 22.0205C44.9286 23.9518 42.4558 26.1172 42.0076 22.443L41.2187 22.0486L41.2185 22.0488Z" fill="#FFDD55"/>
<path d="M46.6974 37.3529C45.0295 35.0419 43.3617 34.4641 43.9176 31.5754C43.9176 31.5754 44.4736 29.2644 46.6974 29.2644C48.9212 29.2644 49.4771 31.5754 49.4771 31.5754C50.033 34.4641 48.3652 35.0419 46.6974 37.3529Z" fill="#800000"/>
<path d="M48.0872 32.442C48.0872 32.8251 47.9408 33.1925 47.6802 33.4633C47.4195 33.7342 47.066 33.8864 46.6974 33.8864C46.3288 33.8864 45.9753 33.7342 45.7146 33.4633C45.454 33.1925 45.3075 32.8251 45.3075 32.442C45.3075 32.0589 45.454 31.6915 45.7146 31.4207C45.9753 31.1498 46.3288 30.9976 46.6974 30.9976C47.066 30.9976 47.4195 31.1498 47.6802 31.4207C47.9408 31.6915 48.0872 32.0589 48.0872 32.442Z" fill="#E6E6E6"/>
<defs>
<filter id="filter0_f_7_119" x="24.5606" y="15.2161" width="15.9638" height="30.9853" filterUnits="userSpaceOnUse" color-interpolation-filters="sRGB">
<feFlood flood-opacity="0" result="BackgroundImageFix"/>
<feBlend mode="normal" in="SourceGraphic" in2="BackgroundImageFix" result="shape"/>
<feGaussianBlur stdDeviation="0.38" result="effect1_foregroundBlur_7_119"/>
</filter>
</defs>
</svg>
