<svg width="55" height="52" viewBox="0 0 55 52" fill="none" xmlns="http://www.w3.org/2000/svg">
<path fill-rule="evenodd" clip-rule="evenodd" d="M25.6667 0C21.6274 0 18.3333 3.11445 18.3333 6.93333C18.3333 8.06802 18.6529 9.12114 19.1676 10.0682L7.5804 19.4594C6.9377 19.2092 6.23566 19.0667 5.5 19.0667C2.47329 19.0667 0 21.4051 0 24.2667C0 27.1284 2.47329 29.4667 5.5 29.4667C6.09092 29.4667 6.65208 29.3538 7.18652 29.1891L17.3379 45.1852C16.8132 45.8897 16.5 46.7446 16.5 47.6667C16.5 50.0497 18.5629 52 21.0833 52C23.3697 52 25.2636 50.3901 25.5986 48.3133L44.068 42.4938C44.8248 43.0154 45.7474 43.3333 46.75 43.3333C49.2705 43.3333 51.3333 41.383 51.3333 39C51.3333 38.0358 50.9858 37.1491 50.4167 36.4271L52.1676 14.9128C53.8464 14.0202 55 12.3426 55 10.4C55 7.53844 52.5267 5.2 49.5 5.2C47.9129 5.2 46.4884 5.85151 45.4824 6.87578L32.7064 5.10521C31.8502 2.17443 29.0326 0 25.6667 0ZM25.6667 1.73333C28.7151 1.73333 31.1667 4.05132 31.1667 6.93333C31.1667 9.81552 28.7151 12.1333 25.6667 12.1333C22.6182 12.1333 20.1667 9.81552 20.1667 6.93333C20.1667 4.05132 22.6182 1.73333 25.6667 1.73333ZM32.9964 6.89609L44.401 8.48047C44.1487 9.07578 44 9.72174 44 10.4C44 11.9601 44.7495 13.3485 45.9085 14.3034L34.6042 24.9911C33.879 24.5355 33.0142 24.2667 32.0833 24.2667C30.2669 24.2667 28.7022 25.287 27.9619 26.7448L10.8926 25.2789C10.962 24.9503 11 24.6139 11 24.2667C11 22.7499 10.292 21.3936 9.18815 20.4411L20.2061 11.5104C21.5511 12.9428 23.4894 13.8667 25.6667 13.8667C29.7059 13.8667 33 10.7522 33 6.93333C33 6.9206 32.9965 6.90881 32.9964 6.89609ZM49.5 6.93333C51.5359 6.93333 53.1667 8.47513 53.1667 10.4C53.1667 12.3249 51.5359 13.8667 49.5 13.8667C47.4641 13.8667 45.8333 12.3249 45.8333 10.4C45.8333 8.47513 47.4641 6.93333 49.5 6.93333ZM47.5163 15.2344C48.1333 15.462 48.8 15.6 49.5 15.6C49.767 15.6 50.0236 15.5573 50.2806 15.5221L48.6872 35.0898C48.096 34.8258 47.444 34.6667 46.75 34.6667C45.7731 34.6667 44.8713 34.9646 44.1253 35.4622L35.9827 30.8411C36.4084 30.1841 36.6667 29.4227 36.6667 28.6C36.6667 27.7204 36.3854 26.8987 35.904 26.2133L47.5163 15.2344ZM5.5 20.8C7.5359 20.8 9.16667 22.3418 9.16667 24.2667C9.16667 26.1915 7.5359 27.7333 5.5 27.7333C3.4641 27.7333 1.83333 26.1915 1.83333 24.2667C1.83333 22.3418 3.4641 20.8 5.5 20.8ZM32.0833 26C33.613 26 34.8333 27.1539 34.8333 28.6C34.8333 30.0463 33.613 31.2 32.0833 31.2C30.5537 31.2 29.3333 30.0463 29.3333 28.6C29.3333 27.1539 30.5537 26 32.0833 26ZM10.18 26.9581L27.5179 28.4477C27.516 28.4992 27.5 28.548 27.5 28.6C27.5 30.983 29.5629 32.9333 32.0833 32.9333C33.0585 32.9333 33.9592 32.6338 34.7044 32.1378L42.847 36.7589C42.4229 37.4151 42.1667 38.179 42.1667 39C42.1667 39.7581 42.3916 40.4604 42.7575 41.082L25.4841 46.5258C24.9489 44.6942 23.1845 43.3333 21.0833 43.3333C20.2135 43.3333 19.4078 43.5777 18.7129 43.9799L8.81576 28.3833C9.35874 27.991 9.82199 27.511 10.18 26.9581ZM46.75 36.4C48.2796 36.4 49.5 37.5539 49.5 39C49.5 40.4463 48.2796 41.6 46.75 41.6C45.2204 41.6 44 40.4463 44 39C44 37.5539 45.2204 36.4 46.75 36.4ZM21.0833 45.0667C22.613 45.0667 23.8333 46.2205 23.8333 47.6667C23.8333 49.113 22.613 50.2667 21.0833 50.2667C19.5537 50.2667 18.3333 49.113 18.3333 47.6667C18.3333 46.2205 19.5537 45.0667 21.0833 45.0667Z" fill="#F4B41A"/>
</svg>
