<svg width="63" height="58" viewBox="0 0 63 58" fill="none" xmlns="http://www.w3.org/2000/svg">
<ellipse cx="31.5" cy="29" rx="31.5" ry="29" fill="#F4B41A"/>
<g clip-path="url(#clip0_7_120)">
<path d="M8.12648 20.7492C8.12648 18.1837 9.31462 15.7674 11.2505 14.396C12.7169 13.3571 13.9134 12.9681 15.8903 12.8874L17.2546 12.8317V13.9247V15.0178L15.8903 15.0628C14.749 15.1004 14.4184 15.1482 13.8666 15.3554C12.1898 15.9852 10.8514 17.485 10.4271 19.2098C10.366 19.4584 10.2855 20.0941 10.2484 20.6225L10.1808 21.5831H9.15363H8.12648V20.7492Z" fill="black" fill-opacity="0.945098"/>
<path d="M52.8741 20.7563C52.8741 19.7391 52.5954 18.5936 52.1623 17.8307C51.7373 17.082 50.6803 16.0488 49.9472 15.6656C49.2234 15.2873 48.3067 15.0403 47.626 15.0403H47.1194V13.9499V12.8594L47.4915 12.8629C48.5681 12.8729 50.2425 13.362 51.254 13.962C51.9218 14.3581 53.038 15.3765 53.5098 16.02C54.4557 17.3103 54.8575 18.5131 54.9297 20.2696L54.9836 21.5831H53.9289H52.8741V20.7563V20.7563Z" fill="black" fill-opacity="0.945098"/>
<path d="M47.1194 44.6872V43.5907H47.5947C49.3575 43.5907 51.3383 42.3303 52.2067 40.656C52.6934 39.7179 52.8709 38.908 52.8727 37.6179L52.8741 36.5522H53.9159H54.9577V37.7966C54.9577 39.2538 54.7866 40.1431 54.3039 41.1957C53.1195 43.778 50.7439 45.4387 47.8388 45.7152L47.1194 45.7837V44.6872H47.1194Z" fill="black" fill-opacity="0.945098"/>
<path d="M14.8659 45.6744C12.9898 45.4329 11.0966 44.3949 9.90609 42.9552C9.33262 42.2617 8.59801 40.8403 8.36451 39.9724C8.27134 39.626 8.18298 38.7874 8.15299 37.9649L8.10149 36.5522H9.14047H10.1794L10.2424 37.7928C10.3445 39.8061 10.8459 40.9848 12.0879 42.1316C13.2231 43.1798 14.3678 43.5867 16.188 43.5892L17.2546 43.5908V44.6812V45.7717L16.3368 45.7587C15.8321 45.7516 15.1701 45.7137 14.8659 45.6745V45.6744Z" fill="black" fill-opacity="0.945098"/>
<path d="M20.816 13.9395C20.816 14.2284 20.6952 14.5055 20.4802 14.7099C20.2651 14.9144 19.9734 15.0295 19.669 15.03C19.3646 15.0305 19.0725 14.9164 18.8567 14.7127C18.6409 14.509 18.519 14.2323 18.518 13.9434C18.5169 13.6546 18.6366 13.3771 18.8509 13.1719C19.0651 12.9667 19.3564 12.8506 19.6608 12.8491C19.9652 12.8475 20.2578 12.9607 20.4744 13.1637C20.6909 13.3666 20.8138 13.6429 20.816 13.9318" fill="#FF0000" fill-opacity="0.945098"/>
<path d="M22.1863 17.3808V13.9194H23.3559C23.6263 13.9194 23.8483 13.9656 24.0218 14.058C24.1953 14.1492 24.3238 14.2749 24.4071 14.4349C24.4905 14.5949 24.5322 14.7769 24.5322 14.9808C24.5322 15.1847 24.4905 15.3656 24.4071 15.5233C24.3238 15.6811 24.1959 15.805 24.0235 15.8952C23.8511 15.9842 23.6308 16.0287 23.3626 16.0287H22.4161V15.6501H23.3491C23.5339 15.6501 23.6826 15.6231 23.7953 15.569C23.9091 15.5149 23.9914 15.4383 24.0421 15.3391C24.0939 15.2388 24.1198 15.1194 24.1198 14.9808C24.1198 14.8422 24.0939 14.7211 24.0421 14.6174C23.9902 14.5137 23.9074 14.4337 23.7936 14.3774C23.6798 14.3199 23.5294 14.2912 23.3423 14.2912H22.6054V17.3808H22.1863ZM23.8156 15.8259L24.6674 17.3808H24.1807L23.3423 15.8259H23.8156ZM22.1863 23.3808V19.9194H24.2753V20.2912H22.6054V21.4608H24.1671V21.8326H22.6054V23.009H24.3023V23.3808H22.1863ZM24.9717 27.0011H24.5525C24.5277 26.8805 24.4843 26.7746 24.4224 26.6833C24.3615 26.5921 24.2871 26.5154 24.1992 26.4535C24.1125 26.3904 24.0161 26.343 23.9102 26.3115C23.8043 26.2799 23.6939 26.2642 23.579 26.2642C23.3694 26.2642 23.1795 26.3171 23.0094 26.423C22.8403 26.529 22.7057 26.685 22.6054 26.8912C22.5063 27.0974 22.4567 27.3504 22.4567 27.6501C22.4567 27.9498 22.5063 28.2028 22.6054 28.409C22.7057 28.6152 22.8403 28.7713 23.0094 28.8772C23.1795 28.9831 23.3694 29.036 23.579 29.036C23.6939 29.036 23.8043 29.0203 23.9102 28.9887C24.0161 28.9572 24.1125 28.9104 24.1992 28.8484C24.2871 28.7853 24.3615 28.7082 24.4224 28.6169C24.4843 28.5245 24.5277 28.4186 24.5525 28.2991H24.9717C24.9401 28.476 24.8826 28.6344 24.7993 28.7741C24.7159 28.9138 24.6122 29.0327 24.4883 29.1307C24.3643 29.2276 24.2252 29.3014 24.0708 29.3521C23.9176 29.4028 23.7536 29.4282 23.579 29.4282C23.2837 29.4282 23.0212 29.3561 22.7913 29.2118C22.5615 29.0676 22.3806 28.8625 22.2488 28.5966C22.117 28.3307 22.051 28.0152 22.051 27.6501C22.051 27.285 22.117 26.9695 22.2488 26.7036C22.3806 26.4377 22.5615 26.2326 22.7913 26.0884C23.0212 25.9442 23.2837 25.872 23.579 25.872C23.7536 25.872 23.9176 25.8974 24.0708 25.9481C24.2252 25.9988 24.3643 26.0732 24.4883 26.1712C24.6122 26.2681 24.7159 26.3864 24.7993 26.5261C24.8826 26.6647 24.9401 26.823 24.9717 27.0011Z" fill="black"/>
<path d="M26.9936 16.3617L35.5918 16.2607L51.1419 41.5547L12.5839 41.5258L26.9936 16.3617Z" fill="#505654"/>
<path d="M29.8233 40.7477L30.191 33.7015H31.299L31.2897 40.7477H29.8233Z" fill="#E1E3E4"/>
<path d="M30.4438 29.6553H31.2929V26.0923H30.6513L30.4438 29.6553Z" fill="#E1E3E4"/>
<path d="M30.7828 24.4439H31.3111V22.605H30.8771L30.7828 24.4439Z" fill="#E1E3E4"/>
<path d="M30.9527 21.5442L31.3139 21.5661L31.3112 20.5372L31.0067 20.5481L30.9527 21.5442Z" fill="#E1E3E4"/>
<path d="M31.0286 19.9895H31.3149L31.3203 19.3971H31.0718L31.0286 19.9895Z" fill="#E1E3E4"/>
<path d="M31.0953 19.0415L31.3152 19.0462V18.6622H31.1153L31.0953 19.0415Z" fill="#E1E3E4"/>
<path d="M31.1282 18.4497H31.3142L31.3118 18.1853H31.1421L31.1282 18.4497Z" fill="#E1E3E4"/>
<path d="M31.1565 18.0063H31.3123L31.3146 17.8222H31.1658L31.1565 18.0063Z" fill="#E1E3E4"/>
<path d="M31.1729 17.6927H31.3143V17.5374H31.1811L31.1729 17.6927Z" fill="#E1E3E4"/>
<path d="M31.1858 17.4497H31.3132L31.3121 17.3273H31.1939L31.1858 17.4497Z" fill="#E1E3E4"/>
<path d="M31.1994 17.2623H31.3153L31.3142 17.1588H31.2052L31.1994 17.2623Z" fill="#E1E3E4"/>
<path d="M31.2095 17.1083H31.3126L31.3138 17.0213H31.2129L31.2095 17.1083Z" fill="#E1E3E4"/>
<path d="M31.2186 16.9729H31.3114V16.907H31.2198L31.2186 16.9729Z" fill="#E1E3E4"/>
<path d="M31.2232 16.8672H31.3136L31.3128 16.8081H31.2272L31.2232 16.8672Z" fill="#E1E3E4"/>
<path d="M31.2287 16.78H31.3115V16.7411H31.2319L31.2287 16.78Z" fill="#E1E3E4"/>
<path d="M31.2342 16.7169H31.3094V16.6886H31.2369L31.2342 16.7169Z" fill="#E1E3E4"/>
<path d="M31.2378 16.6668H31.3091L31.3095 16.6466H31.2386L31.2378 16.6668Z" fill="#E1E3E4"/>
<path d="M31.2397 16.6297H31.3085L31.3089 16.6103H31.2408L31.2397 16.6297Z" fill="#E1E3E4"/>
<path d="M40.6566 25.8235H42.532C43.5528 25.8235 44.0946 26.3807 44.3445 27.0324L45.6722 30.4548C46.1982 30.5217 47.1306 31.1395 47.1306 32.3082V36.6609H45.8392V38.0526C45.8392 39.7654 43.4133 39.7455 43.4133 38.0526V36.6609H39.0501H39.0474H39.0501H39.0478H34.6844V38.0526C34.6844 39.7455 32.2582 39.7654 32.2582 38.0526V36.6609H30.9668V32.3082C30.9668 31.1395 31.8983 30.5217 32.4243 30.4548L33.7522 27.0324C34.0021 26.3807 34.5437 25.8235 35.5645 25.8235H37.4617H40.6566Z" fill="black"/>
<path d="M39.0474 30.4195H39.0451H33.7991L34.7989 27.7258C34.9238 27.3477 35.1114 27.0745 35.5487 27.0704H39.0451H39.0474H39.0501H42.5479C42.9851 27.0745 43.1725 27.3477 43.2979 27.7258L44.2974 30.4195H39.0501H39.0474Z" fill="white"/>
<path d="M33.5099 34.0377C32.891 34.0377 32.3892 33.5212 32.3892 32.884C32.3892 32.2463 32.891 31.7298 33.5099 31.7298C34.1288 31.7298 34.6306 32.2463 34.6306 32.884C34.6306 33.5212 34.1288 34.0377 33.5099 34.0377Z" fill="white"/>
<path d="M44.5867 34.0377C45.2055 34.0377 45.7075 33.5212 45.7075 32.884C45.7075 32.2463 45.2055 31.7298 44.5867 31.7298C43.9679 31.7298 43.4659 32.2463 43.4659 32.884C43.4659 33.5212 43.9679 34.0377 44.5867 34.0377Z" fill="white"/>
</g>
<defs>
<clipPath id="clip0_7_120">
<rect width="47.25" height="33.2713" fill="white" transform="translate(8.09998 12.5891)"/>
</clipPath>
</defs>
</svg>
